<?xml version="1.0" encoding="UTF-8" standalone="no"?>
<svg
   height="128"
   width="128"
   version="1.1"
   id="svg7"
   sodipodi:docname="icon2.svg"
   xml:space="preserve"
   xmlns:inkscape="http://www.inkscape.org/namespaces/inkscape"
   xmlns:sodipodi="http://sodipodi.sourceforge.net/DTD/sodipodi-0.dtd"
   xmlns="http://www.w3.org/2000/svg"
   xmlns:svg="http://www.w3.org/2000/svg">
  <defs id="defs7" />
  <sodipodi:namedview
     id="namedview7"
     pagecolor="#ffffff"
     bordercolor="#000000"
     borderopacity="0.25"
     inkscape:current-layer="svg7" />
  <rect
     x="2"
     y="2"
     width="124"
     height="124"
     rx="14"
     fill="#9ba126"
     stroke="#212532"
     stroke-width="4"
     id="rect1"
     style="fill:#9ba126;fill-opacity:1" />
  <!-- Existing globe group -->
  <g id="g9" transform="matrix(0.19441649,0,0,0.19496602,13.8,13.895646)">
    <!-- [Existing globe paths here] -->
    <!-- Replace this comment with the existing globe paths from your original SVG -->
  </g>
  <!-- Added cog in the bottom right corner -->
  <g id="cog-group" transform="matrix(0.04,0,0,0.04,105.52,105.52)">
    <path
       id="cog"
       style="fill:#888888"
       d="M512,288v-64h-44.69c-3.24-12.27-7.64-24.07-13.15-35.17l31.63-31.63l-45.26-45.26l-31.63,31.63
       c-11.1-5.51-22.9-9.91-35.17-13.15V128h-64v44.69c-12.27,3.24-24.07,7.64-35.17,13.15l-31.63-31.63l-45.26,45.26l31.63,31.63
       c-5.51,11.1-9.91,22.9-13.15,35.17H128v64h44.69c3.24,12.27,7.64,24.07,13.15,35.17l-31.63,31.63l45.26,45.26l31.63-31.63
       c11.1,5.51,22.9,9.91,35.17,13.15V384h64v-44.69c12.27-3.24,24.07-7.64,35.17-13.15l31.63,31.63l45.26-45.26l-31.63-31.63
       c5.51-11.1,9.91-22.9,13.15-35.17H512z M256,336c-44.112,0-80-35.888-80-80s35.888-80,80-80s80,35.888,80,80
       S300.112,336,256,336z" />
  </g>
</svg>
